<mxfile host="app.diagrams.net" modified="2024-08-27T11:25:08.973Z" agent="Mozilla/5.0 (Windows NT 10.0; Win64; x64) AppleWebKit/537.36 (KHTML, like Gecko) Chrome/126.0.0.0 Safari/537.36" etag="WgOPhWq6uEiWS4BDSmIt" version="24.6.4" type="github">
  <diagram name="Page-1" id="QaQJAhQJtePihNZ4xS38">
    <mxGraphModel dx="1106" dy="940" grid="1" gridSize="10" guides="1" tooltips="1" connect="1" arrows="1" fold="1" page="1" pageScale="1" pageWidth="850" pageHeight="1100" math="0" shadow="0">
      <root>
        <mxCell id="0" />
        <mxCell id="kE2ouuulYcCgNS7bQLFN-16" value="general" visible="0" parent="0" />
        <mxCell id="kE2ouuulYcCgNS7bQLFN-17" value="A beamer projects a movie on the building" style="image;aspect=fixed;html=1;points=[];align=center;fontSize=12;image=img/lib/azure2/general/Image.svg;" vertex="1" parent="kE2ouuulYcCgNS7bQLFN-16">
          <mxGeometry x="530" y="200" width="189.09" height="130" as="geometry" />
        </mxCell>
        <mxCell id="kE2ouuulYcCgNS7bQLFN-18" style="edgeStyle=orthogonalEdgeStyle;rounded=0;orthogonalLoop=1;jettySize=auto;html=1;" edge="1" parent="kE2ouuulYcCgNS7bQLFN-16" source="kE2ouuulYcCgNS7bQLFN-20" target="kE2ouuulYcCgNS7bQLFN-21">
          <mxGeometry relative="1" as="geometry" />
        </mxCell>
        <mxCell id="kE2ouuulYcCgNS7bQLFN-19" value="videoclip" style="edgeLabel;html=1;align=center;verticalAlign=middle;resizable=0;points=[];" vertex="1" connectable="0" parent="kE2ouuulYcCgNS7bQLFN-18">
          <mxGeometry x="-0.1057" relative="1" as="geometry">
            <mxPoint as="offset" />
          </mxGeometry>
        </mxCell>
        <mxCell id="kE2ouuulYcCgNS7bQLFN-20" value="NUC computer, running Unity software" style="image;points=[];aspect=fixed;html=1;align=center;shadow=0;dashed=0;image=img/lib/allied_telesis/computer_and_terminals/Server_Desktop.svg;" vertex="1" parent="kE2ouuulYcCgNS7bQLFN-16">
          <mxGeometry x="290" y="150" width="102.6" height="130.05" as="geometry" />
        </mxCell>
        <mxCell id="kE2ouuulYcCgNS7bQLFN-21" value="" style="shape=image;html=1;verticalAlign=top;verticalLabelPosition=bottom;labelBackgroundColor=#ffffff;imageAspect=0;aspect=fixed;image=https://cdn1.iconfinder.com/data/icons/social-media-vol-3/24/_video-128.png;rotation=0;" vertex="1" parent="kE2ouuulYcCgNS7bQLFN-16">
          <mxGeometry x="500" y="155.03" width="120" height="120" as="geometry" />
        </mxCell>
        <mxCell id="kE2ouuulYcCgNS7bQLFN-22" style="edgeStyle=orthogonalEdgeStyle;rounded=0;orthogonalLoop=1;jettySize=auto;html=1;" edge="1" parent="kE2ouuulYcCgNS7bQLFN-16" source="kE2ouuulYcCgNS7bQLFN-24" target="kE2ouuulYcCgNS7bQLFN-20">
          <mxGeometry relative="1" as="geometry" />
        </mxCell>
        <mxCell id="kE2ouuulYcCgNS7bQLFN-23" value="3D depth image" style="edgeLabel;html=1;align=center;verticalAlign=middle;resizable=0;points=[];" vertex="1" connectable="0" parent="kE2ouuulYcCgNS7bQLFN-22">
          <mxGeometry x="-0.2229" y="1" relative="1" as="geometry">
            <mxPoint as="offset" />
          </mxGeometry>
        </mxCell>
        <mxCell id="kE2ouuulYcCgNS7bQLFN-24" value="3D depth camera" style="points=[[0,0.5,0],[0.19,0.02,0],[0.59,0,0],[0.985,0.02,0],[1,0.5,0],[0.985,0.98,0],[0.59,1,0],[0.19,0.98,0]];verticalLabelPosition=bottom;sketch=0;html=1;verticalAlign=top;aspect=fixed;align=center;pointerEvents=1;shape=mxgraph.cisco19.camera;fillColor=#005073;strokeColor=none;" vertex="1" parent="kE2ouuulYcCgNS7bQLFN-16">
          <mxGeometry x="60" y="190.03" width="90" height="50" as="geometry" />
        </mxCell>
        <mxCell id="kE2ouuulYcCgNS7bQLFN-25" value="statediagram" parent="0" />
        <mxCell id="kE2ouuulYcCgNS7bQLFN-33" style="edgeStyle=orthogonalEdgeStyle;rounded=0;orthogonalLoop=1;jettySize=auto;html=1;entryX=0.5;entryY=0;entryDx=0;entryDy=0;" edge="1" parent="kE2ouuulYcCgNS7bQLFN-25" source="kE2ouuulYcCgNS7bQLFN-27" target="kE2ouuulYcCgNS7bQLFN-28">
          <mxGeometry relative="1" as="geometry" />
        </mxCell>
        <mxCell id="kE2ouuulYcCgNS7bQLFN-27" value="Bootup" style="ellipse;whiteSpace=wrap;html=1;" vertex="1" parent="kE2ouuulYcCgNS7bQLFN-25">
          <mxGeometry x="260" y="110" width="120" height="40" as="geometry" />
        </mxCell>
        <mxCell id="kE2ouuulYcCgNS7bQLFN-34" style="edgeStyle=orthogonalEdgeStyle;rounded=0;orthogonalLoop=1;jettySize=auto;html=1;entryX=0.5;entryY=0;entryDx=0;entryDy=0;" edge="1" parent="kE2ouuulYcCgNS7bQLFN-25" source="kE2ouuulYcCgNS7bQLFN-28" target="kE2ouuulYcCgNS7bQLFN-29">
          <mxGeometry relative="1" as="geometry" />
        </mxCell>
        <mxCell id="kE2ouuulYcCgNS7bQLFN-28" value="Calibrating" style="ellipse;whiteSpace=wrap;html=1;" vertex="1" parent="kE2ouuulYcCgNS7bQLFN-25">
          <mxGeometry x="260" y="220" width="120" height="40" as="geometry" />
        </mxCell>
        <mxCell id="kE2ouuulYcCgNS7bQLFN-35" style="edgeStyle=orthogonalEdgeStyle;rounded=0;orthogonalLoop=1;jettySize=auto;html=1;entryX=0.5;entryY=0;entryDx=0;entryDy=0;" edge="1" parent="kE2ouuulYcCgNS7bQLFN-25" source="kE2ouuulYcCgNS7bQLFN-29" target="kE2ouuulYcCgNS7bQLFN-30">
          <mxGeometry relative="1" as="geometry" />
        </mxCell>
        <mxCell id="kE2ouuulYcCgNS7bQLFN-29" value="Detecting" style="ellipse;whiteSpace=wrap;html=1;" vertex="1" parent="kE2ouuulYcCgNS7bQLFN-25">
          <mxGeometry x="260" y="340" width="120" height="40" as="geometry" />
        </mxCell>
        <mxCell id="kE2ouuulYcCgNS7bQLFN-36" style="edgeStyle=orthogonalEdgeStyle;rounded=0;orthogonalLoop=1;jettySize=auto;html=1;entryX=0;entryY=0.5;entryDx=0;entryDy=0;exitX=0;exitY=0.5;exitDx=0;exitDy=0;" edge="1" parent="kE2ouuulYcCgNS7bQLFN-25" source="kE2ouuulYcCgNS7bQLFN-30" target="kE2ouuulYcCgNS7bQLFN-29">
          <mxGeometry relative="1" as="geometry">
            <mxPoint x="200" y="290" as="targetPoint" />
            <Array as="points">
              <mxPoint x="200" y="490" />
              <mxPoint x="200" y="360" />
            </Array>
          </mxGeometry>
        </mxCell>
        <mxCell id="kE2ouuulYcCgNS7bQLFN-30" value="PlayVideo" style="ellipse;whiteSpace=wrap;html=1;" vertex="1" parent="kE2ouuulYcCgNS7bQLFN-25">
          <mxGeometry x="260" y="470" width="120" height="40" as="geometry" />
        </mxCell>
        <mxCell id="kE2ouuulYcCgNS7bQLFN-39" style="edgeStyle=orthogonalEdgeStyle;rounded=0;orthogonalLoop=1;jettySize=auto;html=1;" edge="1" parent="kE2ouuulYcCgNS7bQLFN-25" source="kE2ouuulYcCgNS7bQLFN-38" target="kE2ouuulYcCgNS7bQLFN-27">
          <mxGeometry relative="1" as="geometry" />
        </mxCell>
        <mxCell id="kE2ouuulYcCgNS7bQLFN-38" value="Start application" style="text;html=1;align=center;verticalAlign=middle;whiteSpace=wrap;rounded=0;" vertex="1" parent="kE2ouuulYcCgNS7bQLFN-25">
          <mxGeometry x="290" y="50" width="60" height="30" as="geometry" />
        </mxCell>
        <mxCell id="kE2ouuulYcCgNS7bQLFN-40" value="After some initial invalid bootup frames&lt;div&gt;&lt;br&gt;&lt;/div&gt;" style="text;html=1;align=left;verticalAlign=middle;resizable=0;points=[];autosize=1;strokeColor=none;fillColor=none;" vertex="1" parent="kE2ouuulYcCgNS7bQLFN-25">
          <mxGeometry x="330" y="170" width="230" height="40" as="geometry" />
        </mxCell>
        <mxCell id="kE2ouuulYcCgNS7bQLFN-41" value="After the depthHistory is filled; the average&amp;nbsp;&lt;div&gt;depth value if there is no movement is stored&lt;/div&gt;" style="text;html=1;align=center;verticalAlign=middle;resizable=0;points=[];autosize=1;strokeColor=none;fillColor=none;" vertex="1" parent="kE2ouuulYcCgNS7bQLFN-25">
          <mxGeometry x="330" y="280" width="260" height="40" as="geometry" />
        </mxCell>
        <mxCell id="kE2ouuulYcCgNS7bQLFN-42" value="The current depth value of the camera exceeds the&amp;nbsp;&lt;div&gt;average depth value including a threshold&lt;/div&gt;" style="text;html=1;align=center;verticalAlign=middle;resizable=0;points=[];autosize=1;strokeColor=none;fillColor=none;" vertex="1" parent="kE2ouuulYcCgNS7bQLFN-25">
          <mxGeometry x="320" y="400" width="300" height="40" as="geometry" />
        </mxCell>
        <mxCell id="kE2ouuulYcCgNS7bQLFN-43" value="The videoclip is done playing" style="text;html=1;align=center;verticalAlign=middle;resizable=0;points=[];autosize=1;strokeColor=none;fillColor=none;" vertex="1" parent="kE2ouuulYcCgNS7bQLFN-25">
          <mxGeometry x="10" y="400" width="180" height="30" as="geometry" />
        </mxCell>
      </root>
    </mxGraphModel>
  </diagram>
</mxfile>
